<svg xmlns="http://www.w3.org/2000/svg" version="1.1" xmlns:xlink="http://www.w3.org/1999/xlink" width="2100" height="2100"><svg xmlns="http://www.w3.org/2000/svg" version="1.1" xmlns:xlink="http://www.w3.org/1999/xlink" width="2100" height="2100"><svg width="2100" height="2100" viewBox="0 0 2100 2100" fill="none" xmlns="http://www.w3.org/2000/svg">
<path d="M1547.5 539.5L1344.5 654V912L1547.5 802V539.5Z" fill="#D73715"></path>
<path d="M753.5 339L1344.5 654L1547.5 539.5L959 228L753.5 339Z" fill="#FCBF28"></path>
<path d="M1344.5 912V654L753.5 339L552.5 450V1034L694 1107.5L1151.5 1089L773.5 889V616.5L1344.5 912Z" fill="#FDA32F"></path>
<path d="M773.5 889.5V616.5L969.5 718V776L1547 1081.5V1641L1345 1749.5V1190L1151.5 1089L773.5 889.5Z" fill="#D63713"></path>
<path d="M1118.5 1330.5L694 1107.5L1151.5 1089L1345 1190V1749.5L1123 1872L552 1568V1305L1118.5 1601.5V1330.5Z" fill="#F46824"></path>
<path d="M552 1305L1118.5 1601.5V1384L752 1192L552 1305Z" fill="#C42912"></path>
</svg></svg><style>@media (prefers-color-scheme: light) { :root { filter: none; } }
@media (prefers-color-scheme: dark) { :root { filter: none; } }
</style></svg>